<svg version="1.1" xmlns="http://www.w3.org/2000/svg" xmlns:xlink="http://www.w3.org/1999/xlink" class="thumbnail-icon"
     viewBox="8.290478706359863 0 183.41905212402344 200">
    <path fill="#00704a" d="M97.95655,0c-17.72749,0 -32.12073,44.79289 -32.12073,99.99498c0,55.2347 14.39073,100 32.13327,100.00502c8.75837,-0.00502 16.7089,-10.95612 22.50182,-28.69615c4.90228,11.93206 11.07404,19.06219 17.77265,19.06219c15.97381,0.00502 28.93199,-40.30708 28.91944,-90.02484c0.01254,-49.71525 -12.9356,-90.03487 -28.90439,-90.0148c-6.65094,0 -12.77754,7.01724 -17.66477,18.77619c-5.80797,-17.96834 -13.80115,-29.09255 -22.6373,-29.10259zM72.33875,9.8447c-37.82082,15.70536 -64.04827,50.00125 -64.04827,89.76392c-0.01004,39.77019 26.22745,74.06107 64.06583,89.7589c-21.67892,-18.76113 -36.07968,-51.95815 -36.07968,-89.75639c0,-37.79824 14.4108,-70.99275 36.06212,-89.76643zM119.13872,32.83575c-6.00868,16.49816 -9.80205,40.62069 -9.80205,67.50797c-0.00251,26.65145 3.72312,50.59334 9.63647,67.07644c-2.88517,3.91129 -6.06638,6.08144 -9.40315,6.08144c-13.051,-0.01004 -23.61825,-32.9085 -23.61825,-73.50661c0,-40.57804 10.56725,-73.49156 23.60069,-73.49156c3.41705,0.00753 6.66098,2.27552 9.58629,6.33232zM162.87539,100.34622c0.01254,27.90085 -6.93444,50.53564 -15.4896,50.53564c-8.56017,0 -15.49462,-22.6373 -15.49462,-50.5256c0,-27.9159 6.93444,-50.54316 15.49462,-50.5532c8.56519,0.00753 15.49964,22.63228 15.4896,50.54316zM175.13109,99.01152c0.00753,14.93013 3.7156,27.02276 8.28671,27.02276c4.57362,0 8.2842,-12.10266 8.29173,-27.01523c-0.00753,-14.93013 -3.71058,-27.02777 -8.28671,-27.02777c-4.57613,0.00251 -8.29925,12.10015 -8.29173,27.02025z"
            fill-rule="evenodd"></path>
</svg>
